HIERARCHY
ROOT Hips
{
	OFFSET -0.001795 -0.223333 0.028219
	CHANNELS 6 Xposition Yposition Zposition Zrotation Yrotation Xrotation 
	JOINT LeftUpLeg
	{
		OFFSET 0.069520 -0.091406 -0.006815
		CHANNELS 3 Zrotation Yrotation Xrotation
		JOINT LeftLeg
		{
			OFFSET 0.034277 -0.375199 -0.004496
			CHANNELS 3 Zrotation Yrotation Xrotation
			JOINT LeftFoot
			{
				OFFSET -0.013596 -0.397961 -0.043693
				CHANNELS 3 Zrotation Yrotation Xrotation
				JOINT LeftToe
				{
					OFFSET 0.026358 -0.055791 0.119288
					CHANNELS 3 Zrotation Yrotation Xrotation
					End Site
					{
						OFFSET 0.000000 0.000000 0.000000
					}
				}
			}
		}
	}
	JOINT RightUpLeg
	{
		OFFSET -0.067670 -0.090522 -0.004320
		CHANNELS 3 Zrotation Yrotation Xrotation
		JOINT RightLeg
		{
			OFFSET -0.038290 -0.382569 -0.008850
			CHANNELS 3 Zrotation Yrotation Xrotation
			JOINT RightFoot
			{
				OFFSET 0.015774 -0.398415 -0.042312
				CHANNELS 3 Zrotation Yrotation Xrotation
				JOINT RightToe
				{
					OFFSET -0.025372 -0.048144 0.123348
					CHANNELS 3 Zrotation Yrotation Xrotation
					End Site
					{
						OFFSET 0.000000 0.000000 0.000000
					}
				}
			}
		}
	}
	JOINT Spine
	{
		OFFSET -0.002533 0.108963 -0.026696
		CHANNELS 3 Zrotation Yrotation Xrotation
		JOINT Spine1
		{
			OFFSET 0.005487 0.135180 0.001092
			CHANNELS 3 Zrotation Yrotation Xrotation
			JOINT Spine2
			{
				OFFSET 0.001457 0.052922 0.025425
				CHANNELS 3 Zrotation Yrotation Xrotation
				JOINT Neck
				{
					OFFSET -0.002778 0.213870 -0.042857
					CHANNELS 3 Zrotation Yrotation Xrotation
					JOINT Head
					{
						OFFSET 0.005152 0.064970 0.051349
						CHANNELS 3 Zrotation Yrotation Xrotation
						End Site
						{
							OFFSET 0.000000 0.000000 0.000000
						}
					}
				}
				JOINT LeftShoulder
				{
					OFFSET 0.078845 0.121749 -0.034090
					CHANNELS 3 Zrotation Yrotation Xrotation
					JOINT LeftArm
					{
						OFFSET 0.090977 0.030469 -0.008868
						CHANNELS 3 Zrotation Yrotation Xrotation
						JOINT LeftForeArm
						{
							OFFSET 0.259612 -0.012772 -0.027456
							CHANNELS 3 Zrotation Yrotation Xrotation
							JOINT LeftHand
							{
								OFFSET 0.249234 0.008986 -0.001171
								CHANNELS 3 Zrotation Yrotation Xrotation
								End Site
								{
									OFFSET 0.000000 0.000000 0.000000
								}
							}
						}
					}
				}
				JOINT RightShoulder
				{
					OFFSET -0.081759 0.118833 -0.038615
					CHANNELS 3 Zrotation Yrotation Xrotation
					JOINT RightArm
					{
						OFFSET -0.096012 0.032551 -0.009143
						CHANNELS 3 Zrotation Yrotation Xrotation
						JOINT RightForeArm
						{
							OFFSET -0.253742 -0.013329 -0.021401
							CHANNELS 3 Zrotation Yrotation Xrotation
							JOINT RightHand
							{
								OFFSET -0.255298 0.007772 -0.005559
								CHANNELS 3 Zrotation Yrotation Xrotation
								End Site
								{
									OFFSET 0.000000 0.000000 0.000000
								}
							}
						}
					}
				}
			}
		}
	}
}
MOTION
Frames: 11
Frame Time: 0.050000
-0.057545 0.936107 -0.036663 -0.541314 17.404028 -2.310297 8.725156 -0.454126 0.632964 -5.328157 0.299837 -3.230985 7.523098 17.854750 14.601527 0.000000 0.000000 0.000000 -3.474505 0.064964 -2.094085 5.675482 -1.004525 4.535034 -7.315401 -17.490371 8.640568 0.000000 0.000000 0.000000 7.860814 0.139743 -2.293714 -2.104652 0.882949 1.558781 -5.544811 4.814758 17.297764 9.682564 -1.539932 -25.303026 0.000000 0.000000 0.000000 -22.370052 -27.691193 8.977657 -42.478473 -15.896476 1.021148 30.942357 -73.116118 -23.908843 0.000000 0.000000 0.000000 24.010135 13.399190 11.577888 53.507346 24.155805 3.327291 -18.098811 62.906144 -3.796768 0.000000 0.000000 0.000000 
-0.054814 0.936569 -0.037874 -0.607260 17.494063 -2.221952 8.440779 -0.436386 0.563144 -5.056048 0.287463 -3.386556 7.486200 17.805848 14.559691 0.000000 0.000000 0.000000 -3.597672 0.054512 -2.026336 5.666196 -0.990307 4.167521 -7.333988 -17.469824 9.035866 0.000000 0.000000 0.000000 7.627136 0.129903 -2.197058 -2.316103 0.992069 1.438093 -5.542290 5.096096 17.362644 9.851747 -1.569582 -25.408903 0.000000 0.000000 0.000000 -22.209885 -27.785793 8.911274 -42.577819 -15.347635 0.858728 27.030294 -73.873788 -21.312099 0.000000 0.000000 0.000000 23.701241 12.981242 11.336312 54.507599 23.876744 3.390931 -16.939663 62.714728 -2.979866 0.000000 0.000000 0.000000 
-0.053134 0.937059 -0.039062 -0.597388 17.540662 -2.035355 8.205970 -0.423692 0.566972 -4.894461 0.272985 -3.842738 7.434231 17.766690 14.708456 0.000000 0.000000 0.000000 -3.592267 0.073126 -2.264593 5.408971 -0.939327 4.158692 -7.377393 -17.503683 9.336383 0.000000 0.000000 0.000000 7.331430 0.125665 -2.182344 -2.508473 1.073738 1.570774 -5.596188 5.100528 17.275476 9.868070 -1.609671 -25.229171 0.000000 0.000000 0.000000 -21.736531 -27.748116 8.879286 -43.033654 -15.385455 0.839383 24.122279 -73.940173 -19.120291 0.000000 0.000000 0.000000 23.652309 12.817126 11.218371 55.144252 23.679149 3.427075 -14.471664 63.494769 -1.508353 0.000000 0.000000 0.000000 
-0.052440 0.937297 -0.040268 -0.693940 17.473961 -1.714813 8.143100 -0.423862 0.342409 -4.725722 0.261933 -4.216627 7.466157 17.836517 14.865358 0.000000 0.000000 0.000000 -3.566137 0.105071 -2.636878 5.422309 -0.934452 3.998559 -7.367233 -17.441181 9.577698 0.000000 0.000000 0.000000 7.016379 0.107069 -2.036497 -2.573724 1.103265 1.574330 -5.724367 5.140626 17.170109 9.869739 -1.571022 -25.451152 0.000000 0.000000 0.000000 -21.410139 -27.681284 8.841607 -43.455339 -15.625876 0.897250 21.175321 -73.886894 -16.848097 0.000000 0.000000 0.000000 23.481193 12.782326 11.129282 55.779218 24.057752 3.789034 -11.970070 64.203130 0.000090 0.000000 0.000000 0.000000 
-0.052591 0.937465 -0.041612 -0.772181 17.223972 -1.453514 7.977415 -0.412817 0.173985 -4.317476 0.249907 -4.541881 7.580559 18.015438 15.088222 0.000000 0.000000 0.000000 -3.301954 0.166060 -3.237192 5.062461 -0.867739 4.299034 -7.322555 -17.334059 9.660363 0.000000 0.000000 0.000000 6.802548 0.067230 -1.627617 -2.565865 1.096148 1.633835 -5.915852 5.151950 16.913988 9.871874 -1.606582 -25.347271 0.000000 0.000000 0.000000 -21.094320 -27.923528 9.023831 -43.684691 -16.013187 1.007412 21.400257 -73.814784 -16.964982 0.000000 0.000000 0.000000 23.126539 13.187111 11.222464 56.010928 24.639219 4.214409 -9.761286 65.669713 1.370705 0.000000 0.000000 0.000000 
-0.053202 0.937422 -0.042984 -0.863484 16.898756 -0.888130 7.798289 -0.409189 -0.457799 -3.803458 0.240254 -4.635907 7.773051 18.296018 15.294153 0.000000 0.000000 0.000000 -3.228775 0.232034 -4.006852 5.114321 -0.869204 4.254580 -7.225777 -17.129072 9.738668 0.000000 0.000000 0.000000 6.627200 0.029720 -1.320280 -2.574007 1.090371 1.769145 -6.121013 5.334625 16.408008 9.911371 -1.652765 -25.180119 0.000000 0.000000 0.000000 -21.017610 -28.206065 9.189059 -43.744245 -16.621682 1.243782 22.506737 -73.573691 -17.731210 0.000000 0.000000 0.000000 22.955310 13.926484 11.598945 55.610542 25.542840 4.689920 -8.796486 66.979088 1.938937 0.000000 0.000000 0.000000 
-0.054088 0.937581 -0.044320 -0.840713 16.316627 -0.546861 7.684435 -0.401418 -0.819331 -3.589440 0.241584 -4.621073 8.068193 18.704822 15.628194 0.000000 0.000000 0.000000 -3.116914 0.293458 -4.701333 4.903548 -0.824473 4.535569 -7.022535 -16.740485 9.707891 0.000000 0.000000 0.000000 6.530676 -0.008923 -0.934599 -2.718403 1.163290 1.777395 -6.305191 5.680888 16.159374 9.899734 -1.639465 -25.150363 0.000000 0.000000 0.000000 -21.133731 -28.829948 9.543145 -43.400973 -17.196611 1.466384 25.281387 -73.348169 -19.761241 0.000000 0.000000 0.000000 22.594007 14.810608 12.040004 54.978541 26.887633 5.315128 -9.932248 68.079376 1.188043 0.000000 0.000000 0.000000 
-0.054927 0.937435 -0.045470 -0.810417 16.046487 -0.066278 7.627869 -0.408786 -1.368072 -3.483418 0.241089 -4.631811 8.229747 18.936178 15.819210 0.000000 0.000000 0.000000 -2.976096 0.346715 -5.268615 4.647772 -0.764932 4.405609 -6.955474 -16.610373 9.684881 0.000000 0.000000 0.000000 6.450803 -0.056123 -0.504868 -2.919008 1.266535 1.650596 -6.411914 5.783754 15.846793 9.999358 -1.720907 -25.013607 0.000000 0.000000 0.000000 -21.334080 -29.343619 9.866934 -43.397204 -18.091447 1.807759 28.752811 -72.451291 -22.026307 0.000000 0.000000 0.000000 22.043419 15.812341 12.463164 54.221136 28.459665 6.052749 -12.425928 68.729372 -0.561671 0.000000 0.000000 0.000000 
-0.055793 0.937310 -0.046538 -0.743750 15.874823 0.342797 7.643257 -0.419913 -1.788139 -3.566774 0.243573 -4.740914 8.327342 19.086231 16.014335 0.000000 0.000000 0.000000 -2.938737 0.374515 -5.575635 4.516959 -0.726287 3.996759 -6.904570 -16.510079 9.700088 0.000000 0.000000 0.000000 6.410977 -0.084118 -0.281154 -2.960075 1.278110 1.765646 -6.506677 5.772047 15.536889 10.008811 -1.727821 -25.051390 0.000000 0.000000 0.000000 -21.349778 -30.073312 10.338629 -43.203394 -19.323446 2.238327 32.840076 -71.222124 -24.535099 0.000000 0.000000 0.000000 21.508752 16.940824 12.940665 52.823428 29.853599 6.521688 -17.260141 68.897858 -3.951346 0.000000 0.000000 0.000000 
-0.056680 0.936720 -0.047606 -0.786907 15.920940 1.021560 7.723473 -0.447457 -2.433655 -3.543679 0.237475 -5.114387 8.350881 19.144726 16.104816 0.000000 0.000000 0.000000 -2.898917 0.417132 -6.102378 4.595903 -0.728027 3.427021 -6.958721 -16.601132 9.716374 0.000000 0.000000 0.000000 6.426328 -0.080279 -0.506052 -2.872531 1.219398 1.942445 -6.731567 5.618480 15.151704 10.157429 -1.857834 -24.849260 0.000000 0.000000 0.000000 -21.285911 -31.072771 10.973410 -42.519840 -20.654460 2.667091 36.060353 -68.921236 -25.777445 0.000000 0.000000 0.000000 20.650359 18.206923 13.392238 51.561419 30.872593 6.858043 -23.175342 68.415164 -8.007793 0.000000 0.000000 0.000000 
-0.057852 0.936434 -0.048848 -0.734788 15.890405 1.445718 7.718136 -0.463187 -2.934841 -3.525690 0.236107 -5.196299 8.380869 19.211836 16.239283 0.000000 0.000000 0.000000 -2.818175 0.449545 -6.464330 4.446247 -0.692418 3.076612 -6.977308 -16.629709 9.724516 0.000000 0.000000 0.000000 6.442186 -0.080356 -0.615293 -2.812377 1.185810 1.967351 -6.780510 5.448288 15.121319 10.008244 -1.783538 -24.919386 0.000000 0.000000 0.000000 -20.943688 -32.275462 11.740568 -41.767702 -22.123992 3.060171 39.311161 -66.059228 -26.607498 0.000000 0.000000 0.000000 19.876877 19.140049 13.639795 50.373270 31.843561 7.130729 -27.856694 67.270651 -11.029471 0.000000 0.000000 0.000000 
